<svg width="254" height="158" viewBox="0 0 254 158" fill="none" xmlns="http://www.w3.org/2000/svg">
<path fill-rule="evenodd" clip-rule="evenodd" d="M87.3125 5.25278V57.804C88.0993 57.8229 88.6376 58.4107 88.6376 59.2497C88.6376 60.0572 88.1281 60.6586 87.3125 60.691V75.3897C90.2139 75.3897 92.5653 77.7411 92.5653 80.6434H119.929C119.929 77.7411 122.281 75.3897 125.182 75.3897V60.6595C124.504 60.5496 124.044 59.9978 124.044 59.2515C124.044 58.4926 124.513 57.9597 125.182 57.8454V5.25278C122.281 5.25278 119.929 2.89961 119.929 0H92.5662C92.5662 2.90051 90.2139 5.25278 87.3125 5.25278ZM122.019 59.2506C122.019 60.0806 121.489 60.7027 120.637 60.7027C119.83 60.7027 119.276 60.0806 119.276 59.2506C119.276 58.3981 119.853 57.7977 120.659 57.7977C121.466 57.7977 122.019 58.3981 122.019 59.2506ZM117.25 59.2506C117.25 60.0806 116.72 60.7027 115.867 60.7027C115.061 60.7027 114.507 60.0806 114.507 59.2506C114.507 58.3981 115.084 57.7977 115.89 57.7977C116.697 57.7977 117.25 58.3981 117.25 59.2506ZM112.482 59.2506C112.482 60.0806 111.951 60.7027 111.099 60.7027C110.291 60.7027 109.741 60.0806 109.741 59.2506C109.741 58.3981 110.316 57.7977 111.122 57.7977C111.928 57.7977 112.482 58.3981 112.482 59.2506ZM107.712 59.2506C107.712 60.0806 107.182 60.7027 106.33 60.7027C105.523 60.7027 104.969 60.0806 104.969 59.2506C104.969 58.3981 105.545 57.7977 106.352 57.7977C107.16 57.7977 107.712 58.3981 107.712 59.2506ZM102.944 59.2506C102.944 60.0806 102.414 60.7027 101.561 60.7027C100.755 60.7027 100.203 60.0806 100.203 59.2506C100.203 58.3981 100.779 57.7977 101.585 57.7977C102.392 57.7977 102.944 58.3981 102.944 59.2506ZM98.1745 59.2506C98.1745 60.0806 97.6461 60.7027 96.7927 60.7027C95.9843 60.7027 95.4325 60.0806 95.4325 59.2506C95.4325 58.3981 96.0086 57.7977 96.8152 57.7977C97.6218 57.7977 98.1745 58.3981 98.1745 59.2506ZM93.407 59.2506C93.407 60.0806 92.8768 60.7027 92.0233 60.7027C91.2167 60.7027 90.6649 60.0806 90.6649 59.2506C90.6649 58.3981 91.2402 57.7977 92.0468 57.7977C92.8533 57.7977 93.407 58.3981 93.407 59.2506ZM115.028 8.82485V25.2025H113.768V8.82485H115.028ZM112.547 8.82485V25.2025H111.248V8.82485H112.547ZM110.028 8.82485V25.2025H106.248V8.82485H110.028ZM104.949 8.82485V25.2025H103.728V8.82485H104.949ZM102.469 8.82485V25.2025H99.9489V8.82485H102.469ZM98.649 8.82485V25.2025H97.4283V8.82485H98.649Z" fill="#199EBF"/>
<path fill-rule="evenodd" clip-rule="evenodd" d="M164.243 17.385L139.603 5.48413C138.341 8.09477 135.2 9.19123 132.588 7.92913L128.894 15.5792V57.8454V60.9736V75.3915V79.1022H125.182C124.332 79.1022 123.639 79.7945 123.639 80.6452V84.3559H119.929H117.476L129.169 90.003C130.431 87.3905 133.573 86.295 136.185 87.5571L142.591 74.2924C142.03 73.8981 141.855 73.2013 142.18 72.5288C142.509 71.8465 143.163 71.571 143.815 71.7582L166.687 24.4013C164.077 23.1383 162.983 19.9957 164.243 17.385ZM131.768 67.4993C131.408 68.2456 130.66 68.5751 129.891 68.2042C129.164 67.854 128.938 67.0546 129.3 66.3056C129.669 65.5386 130.447 65.2479 131.176 65.5998C131.901 65.9518 132.139 66.7314 131.768 67.4993ZM146.915 18.8164L139.793 33.5638L138.694 33.0326L145.816 18.2852L146.915 18.8164ZM140.144 15.5459L141.244 16.077L134.12 30.8244L133.021 30.2942L140.144 15.5459ZM136.06 69.5734C135.701 70.3215 134.952 70.6492 134.184 70.2801C133.457 69.9281 133.23 69.1278 133.592 68.3806C133.963 67.6127 134.741 67.3229 135.469 67.674C136.196 68.0232 136.433 68.8073 136.06 69.5734ZM135.291 31.3888L142.412 16.6414L144.682 17.7361L137.559 32.4844L135.291 31.3888ZM140.356 71.6475C139.995 72.3938 139.248 72.7251 138.479 72.3533C137.752 72.0022 137.525 71.2019 137.886 70.4547C138.257 69.6859 139.037 69.3961 139.764 69.7481C140.488 70.0991 140.726 70.8787 140.356 71.6475ZM140.963 34.1291L148.085 19.3817L151.488 21.0246L144.367 35.7729L140.963 34.1291ZM145.466 36.304L152.588 21.5557L153.757 22.1202L146.635 36.8676L145.466 36.304ZM148.869 37.9478L147.733 37.3996L154.857 22.6513L155.991 23.1995L148.869 37.9478Z" fill="#199EBF"/>
<path d="M62.9719 112.789V137.294H56.4124V112.789H47.625V107.137H71.718V112.789H62.9719ZM80.2579 111.241C79.5978 111.888 78.8002 112.211 77.8651 112.211C76.9024 112.211 76.0842 111.888 75.4104 111.241C74.7365 110.595 74.3996 109.804 74.3996 108.869C74.3996 107.962 74.7365 107.185 75.4104 106.538C76.0842 105.892 76.9024 105.569 77.8651 105.569C78.8002 105.569 79.5978 105.892 80.2579 106.538C80.9179 107.185 81.248 107.962 81.248 108.869C81.248 109.804 80.9179 110.595 80.2579 111.241ZM74.7709 114.645H80.9592V137.294H74.7709V114.645ZM92.1806 136.283C90.2829 135.224 88.7771 133.787 87.6632 131.972C86.5493 130.157 85.9923 128.177 85.9923 126.031C85.9923 123.886 86.5493 121.913 87.6632 120.111C88.7771 118.31 90.276 116.88 92.16 115.821C94.044 114.762 96.0999 114.232 98.3276 114.232C100.72 114.232 102.886 114.803 104.825 115.945C106.764 117.086 108.311 118.716 109.467 120.833L103.897 123.02C103.237 121.892 102.426 121.046 101.463 120.483C100.5 119.919 99.4553 119.637 98.3276 119.637C96.5399 119.637 95.0616 120.242 93.8927 121.452C92.7238 122.662 92.1394 124.189 92.1394 126.031C92.1394 127.874 92.7307 129.401 93.9133 130.611C95.096 131.821 96.5812 132.426 98.3689 132.426C100.844 132.426 102.756 131.326 104.103 129.126L109.343 131.188C107.17 135.644 103.512 137.872 98.3689 137.872C96.1411 137.872 94.0784 137.342 92.1806 136.283ZM120.11 106.105V124.257L127.825 114.728H135.375L126.257 125.289L135.746 137.294H128.279L122.338 129.868L120.11 132.426V137.294H113.922V106.105H120.11ZM144.348 136.758C142.464 136.015 140.848 134.757 139.5 132.983C138.153 131.209 137.479 128.892 137.479 126.031C137.479 123.171 138.16 120.861 139.521 119.101C140.882 117.34 142.512 116.089 144.41 115.346C146.307 114.604 148.109 114.232 149.814 114.232C151.794 114.232 153.678 114.672 155.466 115.553C157.254 116.433 158.718 117.725 159.86 119.431C161.001 121.136 161.599 123.157 161.654 125.495C161.654 126.21 161.641 126.829 161.613 127.352C161.586 127.874 161.558 128.204 161.531 128.342H143.626C143.956 129.937 144.781 131.023 146.101 131.601C147.421 132.178 148.659 132.467 149.814 132.467C151.299 132.467 152.482 132.199 153.362 131.663C154.242 131.126 154.999 130.514 155.631 129.827L160.417 132.591C157.831 136.111 154.297 137.872 149.814 137.872C148.054 137.872 146.232 137.5 144.348 136.758ZM145.606 120.895C144.533 121.734 143.928 122.759 143.791 123.969H155.136C155.054 123.254 154.778 122.566 154.311 121.906C153.843 121.246 153.218 120.703 152.434 120.276C151.65 119.85 150.763 119.637 149.773 119.637C148.068 119.637 146.679 120.056 145.606 120.895ZM174.278 129.208C174.278 130.171 174.443 130.975 174.774 131.622C175.104 132.268 175.874 132.591 177.084 132.591C177.634 132.591 178.156 132.563 178.652 132.508V137.707C177.661 137.817 176.74 137.872 175.887 137.872C174.127 137.872 172.704 137.727 171.617 137.438C170.531 137.15 169.685 136.593 169.08 135.768C168.475 134.943 168.173 133.76 168.173 132.22V119.637H165.409V114.232H168.173V108.168H174.278V114.232H178.817V119.637H174.278V129.208ZM186.903 145.793L190.822 136.469L181.086 114.686H188.223L193.957 129.126L199.238 114.686H206.375L193.71 145.793H186.903Z" fill="#04292A"/>
<path d="M3.48817 157.064C3.30506 157.286 3.08305 157.463 2.82212 157.595C2.56119 157.726 2.27357 157.791 1.95923 157.791C1.68763 157.791 1.4328 157.742 1.19477 157.643C0.956729 157.543 0.749209 157.408 0.572206 157.238C0.395204 157.067 0.255585 156.866 0.153351 156.636C0.0511171 156.405 0 156.157 0 155.892C0 155.626 0.0511171 155.378 0.153351 155.148C0.255585 154.917 0.395204 154.716 0.572206 154.544C0.749209 154.371 0.956729 154.236 1.19477 154.138C1.4328 154.041 1.68763 153.992 1.95923 153.992C2.27357 153.992 2.56119 154.058 2.82212 154.189C3.08305 154.32 3.30048 154.491 3.47444 154.702L2.98463 155.205C2.87171 155.043 2.72599 154.913 2.54746 154.814C2.36893 154.715 2.17286 154.665 1.95923 154.665C1.78833 154.665 1.62735 154.698 1.47629 154.763C1.32523 154.829 1.19324 154.917 1.08033 155.029C0.96741 155.14 0.878146 155.27 0.812533 155.418C0.74692 155.566 0.714113 155.724 0.714113 155.892C0.714113 156.057 0.74692 156.213 0.812533 156.361C0.878146 156.509 0.96741 156.639 1.08033 156.75C1.19324 156.861 1.32523 156.95 1.47629 157.016C1.62735 157.081 1.78833 157.114 1.95923 157.114C2.18506 157.114 2.38496 157.063 2.55891 156.961C2.73286 156.858 2.87782 156.723 2.99378 156.555L3.48817 157.064ZM9.31918 157.723H8.60964V156.102H7.16768V157.723H6.45815V154.065H7.16768V155.516H8.60964V154.065H9.31918V157.723ZM16.3038 157.723H15.5256L15.1868 156.99H13.4107L13.0674 157.723H12.2892L14.0195 154.061H14.5734L16.3038 157.723ZM14.9076 156.4L14.2987 155.081L13.6808 156.4H14.9076ZM22.3179 157.723H21.6221L19.9695 155.155V157.723H19.2737V154.061H20.0702L21.6221 156.45V154.061H22.3179V157.723ZM28.9774 157.05C28.8737 157.178 28.7608 157.289 28.6387 157.382C28.5166 157.475 28.3892 157.552 28.2565 157.613C28.1237 157.674 27.9879 157.719 27.849 157.748C27.7102 157.777 27.5721 157.791 27.4348 157.791C27.1632 157.791 26.9083 157.743 26.6703 157.645C26.4323 157.547 26.2247 157.413 26.0477 157.242C25.8707 157.071 25.7304 156.87 25.6266 156.638C25.5228 156.406 25.471 156.156 25.471 155.887C25.471 155.625 25.5221 155.378 25.6243 155.148C25.7265 154.917 25.8669 154.717 26.0454 154.546C26.224 154.375 26.4323 154.24 26.6703 154.141C26.9083 154.042 27.1632 153.992 27.4348 153.992C27.7491 153.992 28.0352 154.056 28.2931 154.184C28.5509 154.312 28.7699 154.483 28.95 154.697L28.4693 155.187C28.332 155.001 28.1779 154.867 28.007 154.786C27.8361 154.705 27.6453 154.665 27.4348 154.665C27.2608 154.665 27.0975 154.697 26.945 154.761C26.7924 154.825 26.6589 154.913 26.5444 155.024C26.43 155.136 26.3399 155.265 26.2743 155.413C26.2087 155.561 26.1759 155.719 26.1759 155.887C26.1759 156.058 26.2087 156.218 26.2743 156.366C26.3399 156.514 26.43 156.644 26.5444 156.757C26.6589 156.87 26.7924 156.958 26.945 157.022C27.0975 157.086 27.2608 157.119 27.4348 157.119C27.5996 157.119 27.7552 157.088 27.9017 157.027C28.0482 156.966 28.1794 156.885 28.2954 156.784V156.432H27.5446V155.828H28.9774V157.05ZM32.8401 157.723H32.1305V154.065H32.8401V157.723ZM39.1746 157.723H38.4788L36.8263 155.155V157.723H36.1305V154.061H36.927L38.4788 156.45V154.061H39.1746V157.723ZM45.8342 157.05C45.7304 157.178 45.6175 157.289 45.4954 157.382C45.3734 157.475 45.2459 157.552 45.1132 157.613C44.9804 157.674 44.8446 157.719 44.7058 157.748C44.5669 157.777 44.4288 157.791 44.2915 157.791C44.0199 157.791 43.7651 157.743 43.527 157.645C43.289 157.547 43.0815 157.413 42.9045 157.242C42.7275 157.071 42.5871 156.87 42.4833 156.638C42.3796 156.406 42.3277 156.156 42.3277 155.887C42.3277 155.625 42.3788 155.378 42.481 155.148C42.5833 154.917 42.7237 154.717 42.9022 154.546C43.0807 154.375 43.289 154.24 43.527 154.141C43.7651 154.042 44.0199 153.992 44.2915 153.992C44.6058 153.992 44.8919 154.056 45.1498 154.184C45.4077 154.312 45.6266 154.483 45.8067 154.697L45.326 155.187C45.1887 155.001 45.0346 154.867 44.8637 154.786C44.6928 154.705 44.5021 154.665 44.2915 154.665C44.1175 154.665 43.9543 154.697 43.8017 154.761C43.6491 154.825 43.5156 154.913 43.4011 155.024C43.2867 155.136 43.1967 155.265 43.1311 155.413C43.0655 155.561 43.0326 155.719 43.0326 155.887C43.0326 156.058 43.0655 156.218 43.1311 156.366C43.1967 156.514 43.2867 156.644 43.4011 156.757C43.5156 156.87 43.6491 156.958 43.8017 157.022C43.9543 157.086 44.1175 157.119 44.2915 157.119C44.4563 157.119 44.6119 157.088 44.7584 157.027C44.9049 156.966 45.0361 156.885 45.1521 156.784V156.432H44.4014V155.828H45.8342V157.05ZM55.5461 154.697H54.5344V157.723H53.8158V154.697H52.8041V154.065H55.5461V154.697ZM61.4687 157.723H60.7591V156.102H59.3172V157.723H58.6076V154.065H59.3172V155.516H60.7591V154.065H61.4687V157.723ZM67.1761 157.723H64.7591V154.065H67.1761V154.651H65.4549V155.526H67.1532V156.098H65.4549V157.105H67.1761V157.723ZM79.0533 154.061L77.8631 157.723H77.2405L76.5676 155.461L75.8901 157.723H75.2675L74.0773 154.061H74.8281L75.6017 156.427L76.27 154.061H76.856L77.5243 156.432L78.3071 154.061H79.0533ZM85.191 157.723H84.4128L84.074 156.99H82.2979L81.9546 157.723H81.1764L82.9067 154.061H83.4606L85.191 157.723ZM83.7948 156.4L83.186 155.081L82.568 156.4H83.7948ZM90.6054 154.065L89.1131 156.226V157.727H88.3944V156.217L86.9799 154.065H87.8039L88.756 155.603L89.7494 154.065H90.6054ZM100.207 155.292C100.207 155.466 100.175 155.629 100.109 155.78C100.043 155.931 99.9542 156.062 99.8413 156.173C99.7284 156.285 99.5956 156.372 99.443 156.434C99.2904 156.497 99.1287 156.528 98.9578 156.528H98.3535V157.723H97.644V154.065H98.9578C99.1287 154.065 99.2904 154.097 99.443 154.159C99.5956 154.222 99.7284 154.308 99.8413 154.418C99.9542 154.528 100.043 154.657 100.109 154.807C100.175 154.956 100.207 155.118 100.207 155.292ZM99.5025 155.283C99.5025 155.188 99.485 155.1 99.4499 155.017C99.4148 154.935 99.3667 154.863 99.3057 154.802C99.2447 154.741 99.1729 154.692 99.0905 154.656C99.0081 154.619 98.9196 154.601 98.825 154.601H98.3535V155.983H98.825C98.9196 155.983 99.0081 155.964 99.0905 155.926C99.1729 155.888 99.2447 155.837 99.3057 155.773C99.3667 155.709 99.4148 155.635 99.4499 155.551C99.485 155.467 99.5025 155.378 99.5025 155.283ZM105.686 157.723H103.269V154.065H105.686V154.651H103.965V155.526H105.663V156.098H103.965V157.105H105.686V157.723ZM112.588 155.892C112.588 156.154 112.537 156.401 112.435 156.633C112.333 156.865 112.193 157.067 112.016 157.238C111.839 157.408 111.633 157.543 111.398 157.643C111.163 157.742 110.913 157.791 110.647 157.791C110.382 157.791 110.131 157.742 109.894 157.643C109.658 157.543 109.451 157.408 109.274 157.238C109.097 157.067 108.957 156.866 108.855 156.636C108.753 156.405 108.702 156.157 108.702 155.892C108.702 155.626 108.753 155.378 108.855 155.146C108.957 154.914 109.097 154.712 109.274 154.541C109.451 154.37 109.658 154.236 109.894 154.138C110.131 154.041 110.382 153.992 110.647 153.992C110.913 153.992 111.163 154.041 111.398 154.138C111.633 154.236 111.839 154.371 112.016 154.544C112.193 154.716 112.333 154.917 112.435 155.148C112.537 155.378 112.588 155.626 112.588 155.892ZM111.874 155.892C111.874 155.724 111.842 155.566 111.778 155.418C111.714 155.27 111.626 155.14 111.515 155.029C111.403 154.917 111.273 154.829 111.123 154.763C110.974 154.698 110.815 154.665 110.647 154.665C110.476 154.665 110.316 154.698 110.167 154.763C110.017 154.829 109.887 154.917 109.775 155.029C109.664 155.14 109.576 155.27 109.512 155.418C109.448 155.566 109.416 155.724 109.416 155.892C109.416 156.057 109.448 156.214 109.512 156.363C109.576 156.513 109.664 156.643 109.775 156.755C109.887 156.866 110.017 156.955 110.167 157.02C110.316 157.086 110.476 157.119 110.647 157.119C110.815 157.119 110.974 157.086 111.123 157.02C111.273 156.955 111.403 156.866 111.515 156.755C111.626 156.643 111.714 156.513 111.778 156.363C111.842 156.214 111.874 156.057 111.874 155.892ZM118.305 155.292C118.305 155.466 118.272 155.629 118.206 155.78C118.141 155.931 118.051 156.062 117.939 156.173C117.826 156.285 117.693 156.372 117.54 156.434C117.388 156.497 117.226 156.528 117.055 156.528H116.451V157.723H115.741V154.065H117.055C117.226 154.065 117.388 154.097 117.54 154.159C117.693 154.222 117.826 154.308 117.939 154.418C118.051 154.528 118.141 154.657 118.206 154.807C118.272 154.956 118.305 155.118 118.305 155.292ZM117.6 155.283C117.6 155.188 117.582 155.1 117.547 155.017C117.512 154.935 117.464 154.863 117.403 154.802C117.342 154.741 117.27 154.692 117.188 154.656C117.105 154.619 117.017 154.601 116.922 154.601H116.451V155.983H116.922C117.017 155.983 117.105 155.964 117.188 155.926C117.27 155.888 117.342 155.837 117.403 155.773C117.464 155.709 117.512 155.635 117.547 155.551C117.582 155.467 117.6 155.378 117.6 155.283ZM123.843 157.723H121.366V154.065H122.09V157.036H123.843V157.723ZM129.276 157.723H126.859V154.065H129.276V154.651H127.554V155.526H129.253V156.098H127.554V157.105H129.276V157.723ZM138.891 157.723H136.474V154.065H138.891V154.651H137.17V155.526H138.868V156.098H137.17V157.105H138.891V157.723ZM145.295 157.723H144.42L143.509 156.331L142.598 157.723H141.724L143.061 155.823L141.834 154.061H142.694L143.509 155.301L144.32 154.061H145.194L143.958 155.818L145.295 157.723ZM150.828 155.292C150.828 155.466 150.795 155.629 150.73 155.78C150.664 155.931 150.575 156.062 150.462 156.173C150.349 156.285 150.216 156.372 150.064 156.434C149.911 156.497 149.749 156.528 149.578 156.528H148.974V157.723H148.265V154.065H149.578C149.749 154.065 149.911 154.097 150.064 154.159C150.216 154.222 150.349 154.308 150.462 154.418C150.575 154.528 150.664 154.657 150.73 154.807C150.795 154.956 150.828 155.118 150.828 155.292ZM150.123 155.283C150.123 155.188 150.106 155.1 150.07 155.017C150.035 154.935 149.987 154.863 149.926 154.802C149.865 154.741 149.793 154.692 149.711 154.656C149.629 154.619 149.54 154.601 149.446 154.601H148.974V155.983H149.446C149.54 155.983 149.629 155.964 149.711 155.926C149.793 155.888 149.865 155.837 149.926 155.773C149.987 155.709 150.035 155.635 150.07 155.551C150.106 155.467 150.123 155.378 150.123 155.283ZM156.307 157.723H153.89V154.065H156.307V154.651H154.585V155.526H156.284V156.098H154.585V157.105H156.307V157.723ZM162.215 157.723H161.433L161.172 156.89C161.144 156.798 161.11 156.714 161.069 156.638C161.028 156.562 160.978 156.496 160.92 156.441C160.862 156.386 160.793 156.343 160.712 156.313C160.631 156.282 160.535 156.267 160.426 156.267H160.16V157.723H159.46V154.065L160.906 154.061C161.062 154.061 161.207 154.087 161.341 154.141C161.475 154.194 161.591 154.268 161.689 154.363C161.787 154.457 161.863 154.569 161.918 154.697C161.973 154.825 162 154.964 162 155.114C162 155.22 161.983 155.324 161.95 155.425C161.916 155.526 161.869 155.619 161.808 155.704C161.747 155.789 161.674 155.865 161.591 155.931C161.507 155.996 161.414 156.046 161.314 156.079C161.43 156.122 161.524 156.184 161.597 156.265C161.671 156.346 161.729 156.443 161.771 156.555C161.793 156.607 161.813 156.659 161.831 156.711C161.849 156.763 161.868 156.817 161.888 156.874C161.908 156.93 161.929 156.991 161.952 157.057C161.975 157.122 162 157.195 162.028 157.274C162.061 157.375 162.093 157.461 162.122 157.533C162.151 157.605 162.182 157.668 162.215 157.723ZM161.286 155.164C161.286 155.078 161.27 155.001 161.238 154.93C161.206 154.86 161.163 154.799 161.108 154.747C161.053 154.695 160.988 154.655 160.913 154.626C160.838 154.597 160.758 154.583 160.673 154.583H160.16V155.722H160.673C160.758 155.722 160.838 155.709 160.913 155.683C160.988 155.658 161.053 155.62 161.108 155.571C161.163 155.522 161.206 155.464 161.238 155.395C161.27 155.326 161.286 155.249 161.286 155.164ZM165.964 157.723H165.254V154.065H165.964V157.723ZM171.671 157.723H169.254V154.065H171.671V154.651H169.95V155.526H171.648V156.098H169.95V157.105H171.671V157.723ZM177.868 157.723H177.172L175.52 155.155V157.723H174.824V154.061H175.621L177.172 156.45V154.061H177.868V157.723ZM184.509 157.064C184.326 157.286 184.104 157.463 183.843 157.595C183.582 157.726 183.295 157.791 182.981 157.791C182.709 157.791 182.454 157.742 182.216 157.643C181.978 157.543 181.771 157.408 181.594 157.238C181.417 157.067 181.277 156.866 181.175 156.636C181.072 156.405 181.021 156.157 181.021 155.892C181.021 155.626 181.072 155.378 181.175 155.148C181.277 154.917 181.417 154.716 181.594 154.544C181.771 154.371 181.978 154.236 182.216 154.138C182.454 154.041 182.709 153.992 182.981 153.992C183.295 153.992 183.582 154.058 183.843 154.189C184.104 154.32 184.322 154.491 184.496 154.702L184.006 155.205C183.893 155.043 183.747 154.913 183.569 154.814C183.39 154.715 183.194 154.665 182.981 154.665C182.81 154.665 182.649 154.698 182.498 154.763C182.347 154.829 182.215 154.917 182.102 155.029C181.989 155.14 181.899 155.27 181.834 155.418C181.768 155.566 181.735 155.724 181.735 155.892C181.735 156.057 181.768 156.213 181.834 156.361C181.899 156.509 181.989 156.639 182.102 156.75C182.215 156.861 182.347 156.95 182.498 157.016C182.649 157.081 182.81 157.114 182.981 157.114C183.206 157.114 183.406 157.063 183.58 156.961C183.754 156.858 183.899 156.723 184.015 156.555L184.509 157.064ZM189.896 157.723H187.479V154.065H189.896V154.651H188.175V155.526H189.874V156.098H188.175V157.105H189.896V157.723ZM199.572 157.723H197.095V154.065H197.819V157.036H199.572V157.723ZM203.297 157.723H202.588V154.065H203.297V157.723ZM209.746 154.061L208.359 157.723H207.709L206.29 154.061H207.077L208.029 156.633L208.968 154.061H209.746ZM215.156 157.723H212.739V154.065H215.156V154.651H213.435V155.526H215.133V156.098H213.435V157.105H215.156V157.723ZM224.772 157.723H222.355V154.065H224.772V154.651H223.051V155.526H224.749V156.098H223.051V157.105H224.772V157.723ZM231.083 154.061L229.696 157.723H229.046L227.627 154.061H228.415L229.367 156.633L230.305 154.061H231.083ZM236.493 157.723H234.076V154.065H236.493V154.651H234.772V155.526H236.47V156.098H234.772V157.105H236.493V157.723ZM242.69 157.723H241.995L240.342 155.155V157.723H239.646V154.061H240.443L241.995 156.45V154.061H242.69V157.723ZM248.494 154.697H247.482V157.723H246.764V154.697H245.752V154.065H248.494V154.697ZM254 156.761C254 156.899 253.97 157.029 253.911 157.153C253.851 157.276 253.768 157.386 253.661 157.48C253.554 157.575 253.428 157.65 253.281 157.707C253.135 157.763 252.973 157.791 252.796 157.791C252.637 157.791 252.495 157.782 252.368 157.764C252.241 157.746 252.122 157.717 252.011 157.677C251.9 157.637 251.793 157.586 251.691 157.524C251.588 157.461 251.482 157.386 251.372 157.297L251.876 156.789C252.022 156.911 252.166 156.997 252.306 157.048C252.447 157.098 252.599 157.123 252.764 157.123C252.831 157.123 252.895 157.113 252.954 157.093C253.014 157.074 253.065 157.047 253.11 157.013C253.154 156.98 253.189 156.94 253.215 156.894C253.241 156.848 253.254 156.798 253.254 156.743C253.254 156.685 253.243 156.633 253.222 156.588C253.2 156.542 253.162 156.498 253.107 156.455C253.052 156.412 252.976 156.369 252.878 156.324C252.781 156.28 252.656 156.23 252.503 156.176C252.369 156.127 252.24 156.071 252.116 156.008C251.993 155.946 251.884 155.87 251.791 155.782C251.698 155.693 251.623 155.59 251.567 155.471C251.511 155.352 251.482 155.211 251.482 155.049C251.482 154.894 251.514 154.75 251.576 154.619C251.639 154.488 251.724 154.376 251.832 154.283C251.941 154.19 252.067 154.117 252.212 154.065C252.357 154.013 252.514 153.987 252.682 153.987C252.962 153.987 253.199 154.024 253.391 154.097C253.583 154.171 253.754 154.277 253.904 154.418L253.409 154.917C253.318 154.828 253.216 154.76 253.103 154.713C252.99 154.666 252.857 154.642 252.705 154.642C252.634 154.642 252.569 154.653 252.51 154.674C252.45 154.695 252.399 154.724 252.357 154.759C252.314 154.794 252.28 154.835 252.254 154.882C252.228 154.93 252.215 154.979 252.215 155.031C252.215 155.089 252.227 155.142 252.251 155.189C252.276 155.236 252.317 155.282 252.375 155.326C252.433 155.371 252.51 155.415 252.606 155.459C252.702 155.503 252.822 155.551 252.965 155.603C253.149 155.667 253.306 155.738 253.437 155.814C253.568 155.89 253.675 155.974 253.757 156.066C253.84 156.157 253.901 156.26 253.94 156.375C253.98 156.489 254 156.618 254 156.761Z" fill="#01696E"/>
</svg>
