<svg width="107" height="18" viewBox="0 0 107 18" fill="none" xmlns="http://www.w3.org/2000/svg">
<path d="M8.57774 0.311017C8.67175 0.120568 8.86569 8.43878e-09 9.0781 8.43878e-09C9.2905 -3.68288e-05 9.48449 0.120532 9.5785 0.31098L11.755 4.72029C11.9596 5.13489 12.3552 5.42234 12.8128 5.48879L17.679 6.19618C17.8892 6.22675 18.0638 6.37395 18.1295 6.57597C18.195 6.77795 18.1404 6.99971 17.9883 7.14798L14.4673 10.5805C14.1362 10.9033 13.9852 11.3683 14.0632 11.824L14.894 16.6698C14.9299 16.8792 14.8439 17.0907 14.672 17.2155C14.5002 17.3404 14.2724 17.3568 14.0844 17.2579L9.73189 14.9701C9.32262 14.755 8.83368 14.755 8.42435 14.9702L4.07221 17.2579C3.88419 17.3567 3.65639 17.3402 3.48458 17.2154C3.31273 17.0905 3.22672 16.879 3.2626 16.6697L4.09376 11.8242C4.17196 11.3684 4.02086 10.9033 3.68969 10.5804L0.168523 7.14802C0.0164588 6.99975 -0.0383182 6.77799 0.0273258 6.57601C0.0929698 6.37403 0.267579 6.22683 0.477772 6.19621L5.34383 5.48886C5.80142 5.42234 6.19702 5.13493 6.40169 4.72025L8.57774 0.311017Z" fill="black"/>
<path d="M30.7843 0.311017C30.8783 0.120568 31.0722 8.43878e-09 31.2846 8.43878e-09C31.497 -3.68288e-05 31.691 0.120532 31.785 0.31098L33.9615 4.72029C34.1662 5.13489 34.5617 5.42234 35.0193 5.48879L39.8855 6.19618C40.0957 6.22675 40.2703 6.37395 40.336 6.57597C40.4016 6.77795 40.3469 6.99971 40.1948 7.14798L36.6739 10.5805C36.3428 10.9033 36.1917 11.3683 36.2698 11.824L37.1006 16.6698C37.1365 16.8792 37.0504 17.0907 36.8786 17.2155C36.7068 17.3404 36.479 17.3568 36.291 17.2579L31.9384 14.9701C31.5292 14.755 31.0402 14.755 30.6309 14.9702L26.2787 17.2579C26.0907 17.3567 25.8629 17.3402 25.6911 17.2154C25.5193 17.0905 25.4333 16.879 25.4691 16.6697L26.3003 11.8242C26.3785 11.3684 26.2274 10.9033 25.8962 10.5804L22.3751 7.14802C22.223 6.99975 22.1682 6.77799 22.2339 6.57601C22.2995 6.37403 22.4741 6.22683 22.6843 6.19621L27.5504 5.48886C28.008 5.42234 28.4036 5.13493 28.6082 4.72025L30.7843 0.311017Z" fill="black"/>
<path d="M52.9908 0.311017C53.0848 0.120568 53.2788 8.43878e-09 53.4912 8.43878e-09C53.7036 -3.68288e-05 53.8976 0.120532 53.9916 0.31098L56.168 4.72029C56.3727 5.13489 56.7683 5.42234 57.2259 5.48879L62.0921 6.19618C62.3023 6.22675 62.4769 6.37395 62.5425 6.57597C62.6081 6.77795 62.5534 6.99971 62.4013 7.14798L58.8804 10.5805C58.5493 10.9033 58.3982 11.3683 58.4763 11.824L59.3071 16.6698C59.343 16.8792 59.257 17.0907 59.0851 17.2155C58.9133 17.3404 58.6855 17.3568 58.4975 17.2579L54.145 14.9701C53.7357 14.755 53.2468 14.755 52.8374 14.9702L48.4853 17.2579C48.2973 17.3567 48.0695 17.3402 47.8977 17.2154C47.7258 17.0905 47.6398 16.879 47.6757 16.6697L48.5068 11.8242C48.585 11.3684 48.4339 10.9033 48.1028 10.5804L44.5816 7.14802C44.4295 6.99975 44.3748 6.77799 44.4404 6.57601C44.5061 6.37403 44.6807 6.22683 44.8909 6.19621L49.7569 5.48886C50.2145 5.42234 50.6101 5.13493 50.8148 4.72025L52.9908 0.311017Z" fill="black"/>
<path d="M75.1969 0.311017C75.2909 0.120568 75.4848 8.43878e-09 75.6972 8.43878e-09C75.9096 -3.68288e-05 76.1036 0.120532 76.1976 0.31098L78.3741 4.72029C78.5788 5.13489 78.9743 5.42234 79.4319 5.48879L84.2981 6.19618C84.5083 6.22675 84.6829 6.37395 84.7486 6.57597C84.8142 6.77795 84.7595 6.99971 84.6074 7.14798L81.0865 10.5805C80.7554 10.9033 80.6043 11.3683 80.6824 11.824L81.5132 16.6698C81.5491 16.8792 81.463 17.0907 81.2912 17.2155C81.1194 17.3404 80.8916 17.3568 80.7036 17.2579L76.351 14.9701C75.9418 14.755 75.4528 14.755 75.0435 14.9702L70.6913 17.2579C70.5033 17.3567 70.2755 17.3402 70.1037 17.2154C69.9319 17.0905 69.8459 16.879 69.8817 16.6697L70.7129 11.8242C70.7911 11.3684 70.64 10.9033 70.3088 10.5804L66.7877 7.14802C66.6356 6.99975 66.5808 6.77799 66.6465 6.57601C66.7121 6.37403 66.8867 6.22683 67.0969 6.19621L71.963 5.48886C72.4206 5.42234 72.8162 5.13493 73.0208 4.72025L75.1969 0.311017Z" fill="black"/>
<path d="M97.4034 0.311017C97.4974 0.120568 97.6914 8.43878e-09 97.9038 8.43878e-09C98.1162 -3.68288e-05 98.3102 0.120532 98.4042 0.31098L100.581 4.72029C100.785 5.13489 101.181 5.42234 101.638 5.48879L106.505 6.19618C106.715 6.22675 106.889 6.37395 106.955 6.57597C107.021 6.77795 106.966 6.99971 106.814 7.14798L103.293 10.5805C102.962 10.9033 102.811 11.3683 102.889 11.824L103.72 16.6698C103.756 16.8792 103.67 17.0907 103.498 17.2155C103.326 17.3404 103.098 17.3568 102.91 17.2579L98.5576 14.9701C98.1483 14.755 97.6594 14.755 97.25 14.9702L92.8979 17.2579C92.7099 17.3567 92.4821 17.3402 92.3103 17.2154C92.1384 17.0905 92.0524 16.879 92.0883 16.6697L92.9194 11.8242C92.9976 11.3684 92.8465 10.9033 92.5154 10.5804L88.9942 7.14802C88.8421 6.99975 88.7874 6.77799 88.853 6.57601C88.9187 6.37403 89.0933 6.22683 89.3035 6.19621L94.1695 5.48886C94.6271 5.42234 95.0227 5.13493 95.2274 4.72025L97.4034 0.311017Z" fill="black"/>
</svg>
