<svg width="11" height="6" viewBox="0 0 11 6" fill="none" xmlns="http://www.w3.org/2000/svg">
<path d="M10.5978 1.99933L8.82389 0.140615C8.78127 0.0960591 8.73058 0.0606938 8.67472 0.0365596C8.61886 0.0124254 8.55895 0 8.49844 0C8.43792 0 8.37801 0.0124254 8.32215 0.0365596C8.26629 0.0606938 8.2156 0.0960591 8.17298 0.140615C8.08761 0.229683 8.03969 0.350168 8.03969 0.475755C8.03969 0.601343 8.08761 0.721827 8.17298 0.810895L9.80483 2.51749H0.458384C0.336813 2.51749 0.220221 2.56758 0.134258 2.65673C0.0482939 2.74588 0 2.86679 0 2.99287C0 3.11895 0.0482939 3.23986 0.134258 3.32901C0.220221 3.41816 0.336813 3.46825 0.458384 3.46825H9.83233L8.17298 5.18435C8.13002 5.22854 8.09592 5.28112 8.07265 5.33905C8.04938 5.39698 8.03739 5.45911 8.03739 5.52187C8.03739 5.58462 8.04938 5.64676 8.07265 5.70469C8.09592 5.76262 8.13002 5.81519 8.17298 5.85939C8.2156 5.90394 8.26629 5.93931 8.32215 5.96344C8.37801 5.98758 8.43792 6 8.49844 6C8.55895 6 8.61886 5.98758 8.67472 5.96344C8.73058 5.93931 8.78127 5.90394 8.82389 5.85939L10.5978 4.01493C10.8554 3.74753 11 3.38506 11 3.00713C11 2.62921 10.8554 2.26673 10.5978 1.99933Z" fill="black"/>
</svg>
