<svg width="27" height="28" viewBox="0 0 27 28" fill="none" xmlns="http://www.w3.org/2000/svg">
<path d="M13.1369 7.15066C9.41284 7.15066 6.39788 10.1689 6.39788 13.8896C6.39788 17.6136 9.41612 20.6286 13.1369 20.6286C16.861 20.6286 19.876 17.6104 19.876 13.8896C19.876 10.1656 16.8578 7.15066 13.1369 7.15066ZM13.1369 18.2637C10.7195 18.2637 8.76279 16.3059 8.76279 13.8896C8.76279 11.4733 10.7206 9.51553 13.1369 9.51553C15.5533 9.51553 17.5111 11.4733 17.5111 13.8896C17.5122 16.3059 15.5544 18.2637 13.1369 18.2637Z" fill="#919299"/>
<path d="M18.5475 0.845072C16.1311 0.732355 10.1461 0.737827 7.72752 0.845072C5.60228 0.944657 3.72764 1.4579 2.21633 2.96919C-0.309455 5.49492 0.013381 8.89832 0.013381 13.8896C0.013381 18.998 -0.271153 22.3226 2.21633 24.81C4.75196 27.3445 8.20466 27.0129 13.1369 27.0129C18.1973 27.0129 19.9439 27.0162 21.7331 26.3235C24.1659 25.3791 26.0022 23.2046 26.1817 19.2989C26.2955 16.8815 26.289 10.8977 26.1817 8.47919C25.965 3.86873 23.4907 1.07269 18.5475 0.845072ZM22.3722 23.139C20.7165 24.7947 18.4194 24.647 13.1052 24.647C7.63341 24.647 5.43922 24.728 3.83817 23.1226C1.99417 21.2873 2.32795 18.3403 2.32795 13.8721C2.32795 7.82587 1.70745 3.47149 7.77567 3.1607C9.16989 3.11145 9.58027 3.09504 13.0899 3.09504L13.1391 3.12787C18.971 3.12787 23.5465 2.51722 23.8212 8.58425C23.8836 9.96859 23.8978 10.3844 23.8978 13.8885C23.8967 19.2967 23.9996 21.504 22.3722 23.139Z" fill="#919299"/>
<path d="M20.143 8.45949C21.0128 8.45949 21.7178 7.75445 21.7178 6.88474C21.7178 6.01502 21.0128 5.30998 20.143 5.30998C19.2733 5.30998 18.5682 6.01502 18.5682 6.88474C18.5682 7.75445 19.2733 8.45949 20.143 8.45949Z" fill="#919299"/>
</svg>
