<svg width="16" height="16" viewBox="0 0 16 16" fill="none" xmlns="http://www.w3.org/2000/svg">
<path d="M7.82571 3.8054C5.60725 3.8054 3.81123 5.60335 3.81123 7.81981C3.81123 10.0382 5.60921 11.8342 7.82571 11.8342C10.0442 11.8342 11.8402 10.0363 11.8402 7.81981C11.8402 5.60139 10.0422 3.8054 7.82571 3.8054ZM7.82571 10.4255C6.38564 10.4255 5.22002 9.25921 5.22002 7.81981C5.22002 6.38041 6.38629 5.21416 7.82571 5.21416C9.26514 5.21416 10.4314 6.38041 10.4314 7.81981C10.4321 9.25921 9.26579 10.4255 7.82571 10.4255Z" fill="white"/>
<path d="M11.0488 0.0491447C9.60935 -0.0180012 6.04403 -0.0147417 4.60331 0.0491447C3.33729 0.108468 2.22056 0.414209 1.32027 1.31449C-0.184343 2.81907 0.00797112 4.84649 0.00797112 7.81981C0.00797112 10.8629 -0.161526 12.8434 1.32027 14.3251C2.83075 15.8349 4.88754 15.6374 7.82571 15.6374C10.8402 15.6374 11.8806 15.6394 12.9465 15.2267C14.3957 14.6641 15.4896 13.3688 15.5965 11.0422C15.6643 9.60211 15.6604 6.03751 15.5965 4.59681C15.4674 1.85035 13.9935 0.18474 11.0488 0.0491447ZM13.3272 13.3297C12.3409 14.316 10.9725 14.228 7.80681 14.228C4.54724 14.228 3.24016 14.2762 2.28641 13.3199C1.18793 12.2267 1.38677 10.4711 1.38677 7.80938C1.38677 4.20762 1.01713 1.61371 4.63199 1.42857C5.46253 1.39923 5.707 1.38945 7.79768 1.38945L7.82702 1.40901C11.3011 1.40901 14.0267 1.04525 14.1903 4.65939C14.2275 5.48405 14.236 5.73177 14.236 7.81916C14.2353 11.0409 14.2966 12.3557 13.3272 13.3297Z" fill="white"/>
<path d="M11.9993 4.58508C12.5174 4.58508 12.9374 4.16508 12.9374 3.64699C12.9374 3.1289 12.5174 2.7089 11.9993 2.7089C11.4812 2.7089 11.0612 3.1289 11.0612 3.64699C11.0612 4.16508 11.4812 4.58508 11.9993 4.58508Z" fill="white"/>
</svg>
