<svg width="12" height="12" viewBox="0 0 12 12" fill="none" xmlns="http://www.w3.org/2000/svg">
<path d="M10.4872 9.97697C11.4273 8.91745 12 7.52462 12 6C12 4.41372 11.3801 2.97041 10.3713 1.89641V1.89621C10.3705 1.89497 10.3692 1.89455 10.3686 1.89352C9.31779 0.776483 7.84552 0.0614483 6.20793 0.00537931L6.20772 0.00517241L6.09083 0.00206897C6.06062 0.00103448 6.03041 0 6 0C5.96959 0 5.93938 0.00103448 5.90917 0.00206897L5.79269 0.00517241L5.79248 0.00537931C4.1549 0.0614483 2.68262 0.776483 1.63179 1.89352C1.63097 1.89455 1.62972 1.89497 1.6291 1.89621L1.6289 1.89662C0.619862 2.97041 0 4.41372 0 6C0 7.52462 0.57269 8.91745 1.51283 9.97697C1.51407 9.97883 1.51407 9.9809 1.51552 9.98276C1.51924 9.98793 1.52462 9.99041 1.52855 9.99517C2.58497 11.1761 4.10069 11.9369 5.79228 11.9948L5.79248 11.995L5.90897 11.9981C5.93938 11.999 5.96959 12 6 12C6.03041 12 6.06062 11.999 6.09083 11.9979L6.20731 11.9948L6.20752 11.9946C7.90097 11.9365 9.41834 11.1743 10.4748 9.99083C10.4774 9.98731 10.4818 9.98628 10.4843 9.98255C10.4859 9.9809 10.4859 9.97883 10.4872 9.97697ZM0.418966 6.2069H2.90234C2.92572 7.08393 3.09703 7.93614 3.402 8.73455C2.81359 8.94745 2.25103 9.23297 1.72386 9.58924C0.948621 8.6671 0.466138 7.49172 0.418966 6.2069ZM1.83683 2.28062C2.35159 2.61538 2.89966 2.88352 3.47131 3.08379C3.12124 3.93352 2.92759 4.84966 2.90234 5.7931H0.418966C0.468414 4.44683 0.995586 3.22097 1.83683 2.28062ZM11.581 5.7931H9.09766C9.07241 4.84966 8.87876 3.93352 8.52869 3.08379C9.10035 2.88352 9.64841 2.61538 10.1632 2.28062C11.0044 3.22097 11.5316 4.44683 11.581 5.7931ZM5.7931 3.09579C5.19497 3.07883 4.60779 2.98966 4.04048 2.83034C4.45986 1.97007 5.052 1.19359 5.7931 0.547035V3.09579ZM5.7931 3.50959V5.7931H3.31614C3.34159 4.89352 3.53028 4.02103 3.86772 3.21207C4.48966 3.39228 5.13538 3.492 5.7931 3.50959ZM6.2069 3.50959C6.86462 3.492 7.51034 3.39248 8.13248 3.21207C8.46993 4.02103 8.65862 4.89352 8.68407 5.7931H6.2069V3.50959ZM6.2069 3.09579V0.547035C6.948 1.19359 7.54014 1.97007 7.95952 2.83034C7.39221 2.98966 6.80503 3.07883 6.2069 3.09579ZM8.36048 2.70455C7.96303 1.87179 7.41145 1.1131 6.72848 0.462828C7.94007 0.62131 9.03021 1.16917 9.86979 1.9769C9.3931 2.27938 8.88745 2.52269 8.36048 2.70455ZM3.63952 2.70455C3.11255 2.52269 2.6069 2.27938 2.13041 1.9769C2.96979 1.16917 4.06014 0.62131 5.27172 0.462828C4.58855 1.1131 4.03697 1.87179 3.63952 2.70455ZM3.31614 6.2069H5.7931V8.28372C5.1089 8.30193 4.43855 8.40869 3.79428 8.60255C3.50317 7.84634 3.33952 7.03841 3.31614 6.2069ZM5.7931 8.69752V11.453C4.99986 10.7609 4.37793 9.92007 3.95503 8.98738C4.54821 8.81255 5.16434 8.71531 5.7931 8.69752ZM6.2069 11.453V8.69752C6.83566 8.7151 7.45179 8.81255 8.04497 8.98717C7.62207 9.92007 7.00014 10.7609 6.2069 11.453ZM6.2069 8.28372V6.2069H8.68386C8.66048 7.03841 8.49683 7.84635 8.20552 8.60276C7.56145 8.40869 6.8911 8.30193 6.2069 8.28372ZM9.09766 6.2069H11.581C11.5339 7.49172 11.0516 8.6671 10.2761 9.58924C9.74897 9.23297 9.18641 8.94745 8.598 8.73455C8.90317 7.93614 9.07428 7.08393 9.09766 6.2069ZM2.00503 9.89917C2.49455 9.57393 3.01572 9.31241 3.56028 9.1169C3.96269 10.019 4.54035 10.841 5.27152 11.5372C3.9989 11.3706 2.85993 10.7748 2.00503 9.89917ZM6.72848 11.5372C7.45966 10.8412 8.03731 10.0192 8.43972 9.1169C8.98428 9.31241 9.50524 9.57393 9.99497 9.89917C9.14007 10.7748 8.0011 11.3706 6.72848 11.5372Z" fill="black"/>
</svg>
