<svg width="29" height="28" viewBox="0 0 29 28" fill="none" xmlns="http://www.w3.org/2000/svg">
<path d="M28.0288 27.647V17.5213C28.0288 12.5448 26.9575 8.74336 21.1516 8.74336C18.3524 8.74336 16.4862 10.2639 15.7259 11.7154H15.6568V9.19262H10.162V27.647H15.8987V18.4889C15.8987 16.0698 16.348 13.7544 19.32 13.7544C22.2575 13.7544 22.2921 16.4845 22.2921 18.6272V27.6124H28.0288V27.647Z" fill="#919299"/>
<path d="M0.831099 9.19262H6.56785V27.647H0.831099V9.19262Z" fill="#919299"/>
<path d="M3.69947 0C1.86786 0 0.381836 1.48603 0.381836 3.31764C0.381836 5.14925 1.86786 6.66983 3.69947 6.66983C5.53109 6.66983 7.01711 5.14925 7.01711 3.31764C7.01711 1.48603 5.53109 0 3.69947 0Z" fill="#919299"/>
</svg>
