<svg width="17" height="18" viewBox="0 0 17 18" fill="none" xmlns="http://www.w3.org/2000/svg">
<path d="M16.4694 17.3529V11.321C16.4694 8.35653 15.8312 6.09199 12.3726 6.09199C10.7051 6.09199 9.59341 6.9978 9.14051 7.86245H9.09933V6.35961H5.82604V17.3529H9.24344V11.8974C9.24344 10.4564 9.51107 9.07706 11.2815 9.07706C13.0314 9.07706 13.052 10.7034 13.052 11.9798V17.3323H16.4694V17.3529Z" fill="white"/>
<path d="M0.267628 6.35961H3.68502V17.3529H0.267628V6.35961Z" fill="white"/>
<path d="M1.97633 0.883545C0.885229 0.883545 0 1.76877 0 2.85987C0 3.95097 0.885229 4.85678 1.97633 4.85678C3.06742 4.85678 3.95265 3.95097 3.95265 2.85987C3.95265 1.76877 3.06742 0.883545 1.97633 0.883545Z" fill="white"/>
</svg>
