<svg width="27" height="27" viewBox="0 0 27 27" fill="none" xmlns="http://www.w3.org/2000/svg">
<path d="M26.8742 0.142335C26.8069 0.0746306 26.721 0.0284106 26.6274 0.0095297C26.5338 -0.00935124 26.4367 -4.35627e-05 26.3484 0.0362737L0.302768 10.6424C0.216721 10.6769 0.142444 10.7355 0.08883 10.8111C0.0352159 10.8867 0.0045367 10.9761 0.000465407 11.0687C-0.00360589 11.1613 0.0191031 11.2531 0.0658739 11.3331C0.112645 11.4131 0.181495 11.4779 0.264182 11.5198L10.258 16.7506L15.4913 26.7397C15.532 26.8183 15.5936 26.8841 15.6693 26.9301C15.7451 26.976 15.832 27.0002 15.9205 27C16.0124 26.9958 16.1012 26.9655 16.1764 26.9125C16.2516 26.8595 16.3101 26.7862 16.345 26.7011L26.9562 0.667822C26.9956 0.581848 27.0088 0.48619 26.9942 0.392755C26.9797 0.299319 26.9379 0.212233 26.8742 0.142335ZM1.62917 11.1438L24.5011 1.82968L10.5136 15.8105L1.62917 11.1438ZM15.8675 25.3753L11.2082 16.4854L25.1957 2.50461L15.8675 25.3753Z" fill="white"/>
</svg>
