<svg width="28" height="23" viewBox="0 0 28 23" fill="none" xmlns="http://www.w3.org/2000/svg">
<path d="M27.6758 3.14597C26.6477 3.59002 25.5522 3.88436 24.41 4.02727C25.585 3.33652 26.4818 2.25106 26.9034 0.942718C25.8079 1.58583 24.5983 2.04009 23.3093 2.29359C22.2691 1.20302 20.7865 0.527588 19.1692 0.527588C16.0312 0.527588 13.505 3.03538 13.505 6.10972C13.505 6.55208 13.543 6.97741 13.6363 7.38234C8.92422 7.15606 4.75471 4.93239 1.95373 1.545C1.46472 2.38036 1.17789 3.33652 1.17789 4.36584C1.17789 6.29858 2.18873 8.01184 3.69549 9.00373C2.78487 8.98671 1.89152 8.72641 1.13469 8.31638C1.13469 8.33339 1.13469 8.35551 1.13469 8.37763C1.13469 11.0896 3.09935 13.3422 5.6757 13.8611C5.21434 13.9853 4.71152 14.0448 4.18968 14.0448C3.82681 14.0448 3.46049 14.0244 3.11663 13.9496C3.851 16.1596 5.93489 17.7844 8.41276 17.8371C6.48438 19.3224 4.03589 20.2173 1.38524 20.2173C0.920424 20.2173 0.474616 20.1969 0.0288086 20.1408C2.5395 21.7349 5.51501 22.6452 8.72378 22.6452C19.1536 22.6452 24.8558 14.1384 24.8558 6.76475C24.8558 6.51805 24.8472 6.27986 24.8351 6.04337C25.9599 5.25735 26.9051 4.27567 27.6758 3.14597Z" fill="#919299"/>
</svg>
