<svg width="17" height="15" viewBox="0 0 17 15" fill="none" xmlns="http://www.w3.org/2000/svg">
<path d="M16.4694 2.50185C15.8569 2.76638 15.2043 2.94171 14.5239 3.02685C15.2239 2.61537 15.7581 1.96875 16.0093 1.18937C15.3567 1.57247 14.6361 1.84308 13.8682 1.99409C13.2486 1.34444 12.3654 0.942078 11.402 0.942078C9.53268 0.942078 8.02779 2.43598 8.02779 4.26737C8.02779 4.53088 8.05044 4.78426 8.10602 5.02547C5.29902 4.89067 2.81523 3.56603 1.14668 1.54815C0.855378 2.04578 0.684509 2.61537 0.684509 3.22853C0.684509 4.37987 1.28667 5.40047 2.18425 5.99134C1.64179 5.9812 1.10962 5.82614 0.658775 5.58188C0.658775 5.59202 0.658775 5.60519 0.658775 5.61837C0.658775 7.23389 1.82913 8.57576 3.36387 8.88488C3.08904 8.95886 2.7895 8.99434 2.47864 8.99434C2.26248 8.99434 2.04426 8.98218 1.83942 8.93758C2.27689 10.2541 3.51827 11.222 4.99434 11.2534C3.8456 12.1382 2.38703 12.6713 0.808029 12.6713C0.531138 12.6713 0.265569 12.6592 0 12.6257C1.49563 13.5754 3.26814 14.1176 5.17962 14.1176C11.3927 14.1176 14.7895 9.05008 14.7895 4.65757C14.7895 4.51061 14.7844 4.36872 14.7772 4.22785C15.4473 3.75961 16.0103 3.17482 16.4694 2.50185Z" fill="white"/>
</svg>
