<svg width="22" height="22" viewBox="0 0 22 22" fill="none" xmlns="http://www.w3.org/2000/svg">
<path d="M16.7673 13.0225C16.63 12.9462 16.4743 12.8596 16.2868 12.7481C16.1821 12.6857 16.0505 12.6003 15.9111 12.5099C15.1953 12.0458 14.6529 11.7173 14.1912 11.7173C14.0831 11.7173 13.9808 11.7354 13.8876 11.771C13.4831 11.9248 13.151 12.3359 12.8297 12.7334C12.712 12.879 12.5435 13.0875 12.4413 13.1807C12.0357 13.1078 11.1803 12.5844 10.2573 11.6726C9.33316 10.7597 8.80315 9.91371 8.7304 9.51404C8.82461 9.41268 9.0373 9.24501 9.18564 9.12796C9.58649 8.81184 10.001 8.48495 10.1576 8.08662C10.3574 7.57484 9.99124 6.96276 9.40966 6.08754C9.31815 5.94979 9.23169 5.81968 9.16895 5.71709C9.05567 5.53112 8.96812 5.37726 8.89087 5.24164C8.57377 4.68496 8.36427 4.31703 7.57704 4.31703C7.06611 4.31703 6.34372 4.79397 5.8544 5.26696C5.14329 5.9545 4.75159 6.74826 4.75159 7.50361C4.75295 9.55514 5.91199 11.9065 7.93157 13.957C7.93504 13.9605 7.9385 13.9614 7.94208 13.9648C10.0179 15.9599 12.3995 17.1009 14.4762 17.1009H14.477C15.2406 17.1009 16.0444 16.7184 16.7404 16.0163C17.2196 15.533 17.703 14.8246 17.703 14.3202C17.7031 13.5427 17.3309 13.3358 16.7673 13.0225ZM14.4764 16.041C12.7075 16.0397 10.5496 14.9807 8.70304 13.2081C6.90835 11.3838 5.83631 9.25196 5.83517 7.50468C5.83517 6.44776 7.2236 5.44287 7.58668 5.3878C7.66085 5.38812 7.69975 5.39246 7.71828 5.39556C7.76628 5.45015 7.86168 5.61766 7.94663 5.76681C8.02351 5.90178 8.11924 6.06982 8.24113 6.26993C8.31481 6.3905 8.40669 6.52874 8.50394 6.67505C8.68798 6.95206 9.05795 7.50885 9.1203 7.74652C9.01601 7.89236 8.69242 8.14753 8.50974 8.2916C8.04214 8.66038 7.63831 8.97881 7.63831 9.42884C7.63945 10.5159 9.05686 12.0005 9.49125 12.4296C9.92563 12.8587 11.4285 14.2588 12.5312 14.2599C12.9839 14.2585 13.3049 13.8612 13.6766 13.4012C13.8232 13.2198 14.0831 12.8983 14.2313 12.7958C14.4717 12.8569 15.036 13.2228 15.3166 13.4049C15.4648 13.5009 15.6046 13.5916 15.7275 13.6648C15.9293 13.7848 16.0994 13.8794 16.2361 13.9553C16.387 14.0392 16.5566 14.1335 16.6119 14.181C16.615 14.1992 16.6194 14.2376 16.6197 14.3108C16.5636 14.6692 15.546 16.0397 14.4764 16.041Z" fill="white"/>
<path d="M21.999 10.9651C21.961 8.07292 20.7858 5.34001 18.6901 3.26969C16.5556 1.16122 13.7382 0 10.7567 0C7.87858 0 5.18614 1.094 3.17523 3.0804C1.39078 4.84315 0.295987 7.19417 0.0923389 9.70044C-0.100799 12.0783 0.511987 14.4847 1.8205 16.5079L0.0336662 21.2791C-0.0413136 21.4794 0.0113457 21.7045 0.167752 21.852C0.270524 21.9489 0.405152 22 0.541892 22C0.613188 22 0.685134 21.9796 0.753342 21.951L5.40702 19.9947C7.18356 21.087 9.21495 21.6499 11.3008 21.6499H11.3011C14.1787 21.6499 16.8711 20.569 18.8817 18.5828C20.93 16.5594 22.0371 13.8624 21.999 10.9651ZM18.1154 17.839C16.3093 19.6231 13.8892 20.6057 11.3008 20.6056C9.33023 20.6056 7.41305 20.0358 5.75645 18.9579C5.66663 18.8994 5.56283 18.8697 5.45843 18.8697C5.38675 18.8697 5.31481 18.8837 5.24693 18.9122L1.48515 20.4882L2.93166 16.6258C2.99217 16.4642 2.97017 16.2836 2.8726 16.1408C0.213856 12.2498 0.663355 7.07542 3.94139 3.8373C5.74762 2.05303 8.16799 1.07035 10.7567 1.07035C13.4488 1.07035 15.9941 2.12019 17.9239 4.02653C19.8188 5.89836 20.8812 8.36743 20.9156 10.979C20.9499 13.5852 19.9554 16.0214 18.1154 17.839Z" fill="white"/>
</svg>
