<svg width="258" height="258" viewBox="0 0 258 258" fill="none" xmlns="http://www.w3.org/2000/svg">
<path d="M7.21238 7.21238C11.8319 2.5943 18.0964 0 24.6283 0C31.1603 0 37.4248 2.5943 42.0443 7.21238L129.149 94.3168L216.253 7.21238C220.899 2.72517 227.122 0.242246 233.58 0.298372C240.039 0.354497 246.218 2.94519 250.785 7.51246C255.352 12.0797 257.943 18.2581 257.999 24.717C258.055 31.1758 255.572 37.3984 251.085 42.0443L163.981 129.149L251.085 216.253C255.572 220.899 258.055 227.122 257.999 233.58C257.943 240.039 255.352 246.218 250.785 250.785C246.218 255.352 240.039 257.943 233.58 257.999C227.122 258.055 220.899 255.572 216.253 251.085L129.149 163.981L42.0443 251.085C37.3984 255.572 31.1758 258.055 24.717 257.999C18.2581 257.943 12.0797 255.352 7.51246 250.785C2.94519 246.218 0.354497 240.039 0.298372 233.58C0.242246 227.122 2.72517 220.899 7.21238 216.253L94.3168 129.149L7.21238 42.0443C2.5943 37.4248 0 31.1603 0 24.6283C0 18.0964 2.5943 11.8319 7.21238 7.21238Z" fill="white"/>
</svg>
