<svg width="183" height="46" viewBox="0 0 183 46" fill="none" xmlns="http://www.w3.org/2000/svg">
<path d="M82.6682 11.1612C86.7603 11.2227 86.1946 17.9828 81.0244 18.0158C93.1993 18.1681 93.0405 1.24858 81.3209 0.930631C69.2085 0.72532 70.5665 0.804636 57.4273 0.890196C49.4881 1.55512 41.63 5.07889 37.9367 11.0852C45.2411 11.1871 72.7085 11.1964 82.6682 11.1612Z" fill="#969696"/>
<path d="M36.0976 11.1698H82.6086C78.0698 10.2493 79.5067 3.52799 81.2613 0.939206L57.5818 0.895011C47.6258 0.841487 39.7554 6.79442 36.0976 11.1698Z" fill="#969696"/>
<path d="M81.4421 0.930605C87.5882 1.02635 90.6381 6.20362 90.036 10.83C89.615 14.0645 87.3609 17.648 81.0649 18.0157L21.5787 18.0925C14.9521 18.2483 6.61826 20.9142 0.963989 28.3231H77.8986C89.5372 28.6965 96.3902 19.4732 96.4499 12.1325C96.5102 4.70846 89.8612 0.967991 85.2383 0.942342C82.9285 0.929527 83.1838 0.904999 81.4421 0.930605Z" fill="#969696"/>
<path d="M31.6166 35.1776L116.447 35.1648C114.736 37.2016 106.949 45.505 95.2796 45.5105L49.523 45.4594C37.5195 45.4633 33.9057 38.3761 31.6166 35.1776Z" fill="#969696"/>
<path d="M105.239 28.0219C104.87 27.844 104.672 27.6714 104.48 27.3618C104.248 26.9875 104.222 26.8608 104.233 26.1771C104.247 25.3096 104.544 23.8712 104.848 23.2008C105.098 22.6491 105.894 21.9323 106.425 21.7814C106.827 21.667 108.329 21.6488 108.728 21.7536C108.876 21.7925 108.977 21.8926 108.996 22.0198C109.054 22.4009 108.89 22.4651 107.982 22.4159C106.27 22.3233 105.713 22.7897 105.306 24.6568C104.792 27.0209 105.167 27.6195 107.08 27.4842C107.557 27.4504 107.97 27.4569 107.997 27.4985C108.088 27.6384 107.951 28.0559 107.793 28.1187C107.707 28.1529 107.21 28.1994 106.688 28.2219C105.802 28.2601 105.705 28.2468 105.239 28.0219ZM137.237 28.0333C136.668 27.782 136.389 27.4097 136.239 26.703C136.154 26.2994 136.172 26.0205 136.344 25.0531C136.6 23.6111 136.829 23.0172 137.325 22.5063C137.873 21.9429 138.337 21.7417 139.202 21.6926C140.762 21.6042 141.503 22.2372 141.499 23.655C141.497 24.5109 141.15 26.1556 140.841 26.7758C140.219 28.0251 138.542 28.6101 137.237 28.0333ZM138.87 27.4261C139.69 27.2301 140.12 26.6101 140.42 25.1901C140.784 23.4664 140.639 22.7146 139.899 22.4828C139.059 22.2198 138.136 22.6056 137.714 23.3961C137.389 24.0058 137.081 25.512 137.123 26.2853C137.161 26.965 137.38 27.2873 137.905 27.4319C138.306 27.5427 138.384 27.5422 138.87 27.4261ZM148.444 28.1738C148.143 28.1261 148.058 28.0706 148.033 27.906C147.974 27.5057 148.146 27.4392 149.094 27.497C150.128 27.56 150.685 27.4417 151.069 27.0774C151.38 26.7817 151.436 26.2596 151.192 25.9285C151.111 25.8193 150.643 25.4636 150.151 25.1381C149.153 24.4777 148.922 24.2435 148.759 23.7251C148.621 23.2885 148.774 22.6403 149.091 22.3177C149.532 21.8682 149.983 21.729 151.126 21.6902C152.704 21.6366 153.113 21.7597 152.858 22.2115C152.777 22.3557 152.608 22.3803 151.506 22.4084C150.119 22.444 149.783 22.5539 149.659 23.013C149.506 23.5829 149.654 23.7708 150.894 24.5789C151.914 25.2432 152.206 25.5825 152.265 26.1704C152.348 26.9886 152.006 27.5656 151.211 27.951C150.794 28.1526 150.581 28.1911 149.773 28.2109C149.251 28.2236 148.653 28.2069 148.444 28.1738ZM109.049 28.0291C108.999 27.9048 109.163 26.9187 109.868 23.1146C110.112 21.7992 110.115 21.7918 110.385 21.7275C110.965 21.5892 111.006 21.7752 110.722 23.2429C110.619 23.7785 110.557 24.2524 110.586 24.2961C110.614 24.3398 111.292 24.3756 112.092 24.3756C113.314 24.3756 113.557 24.3533 113.604 24.2372C113.634 24.1611 113.748 23.6038 113.855 22.9987C114.053 21.8877 114.161 21.6734 114.524 21.6734C114.962 21.6734 114.956 21.8064 114.38 24.9439C114.078 26.5882 113.788 27.9842 113.735 28.0461C113.683 28.108 113.49 28.1587 113.307 28.1587H112.975L113.023 27.6858C113.049 27.4257 113.147 26.805 113.241 26.3064C113.335 25.8078 113.384 25.3315 113.351 25.248C113.297 25.1149 113.113 25.0962 111.86 25.0962C110.803 25.0962 110.419 25.1256 110.386 25.2088C110.361 25.2707 110.224 25.9496 110.08 26.7175L109.819 28.1136L109.463 28.1416C109.208 28.1617 109.09 28.1296 109.049 28.0291ZM115.251 28.0461C115.198 27.9147 116.053 23.2938 116.219 22.8177C116.519 21.9536 117.077 21.6782 118.53 21.6754C119.38 21.6738 119.62 21.7051 119.937 21.8588C120.357 22.0621 120.591 22.4528 120.591 22.9515C120.591 23.4077 119.733 27.9191 119.622 28.0458C119.485 28.2028 118.983 28.1884 118.918 28.0255C118.888 27.9523 118.954 27.3827 119.065 26.7597C119.176 26.1367 119.242 25.5886 119.211 25.5417C119.142 25.4357 116.635 25.4277 116.566 25.5334C116.538 25.5756 116.423 26.133 116.31 26.7719C116.197 27.4108 116.062 27.9842 116.011 28.0461C115.959 28.108 115.778 28.1587 115.607 28.1587C115.436 28.1587 115.276 28.108 115.251 28.0461ZM119.521 24.244C119.584 23.9983 119.663 23.5727 119.694 23.2983C119.781 22.5451 119.665 22.4467 118.649 22.4071C117.712 22.3706 117.325 22.4808 117.13 22.8394C116.97 23.1327 116.679 24.5414 116.755 24.6572C116.785 24.7042 117.379 24.7299 118.107 24.7159L119.404 24.6909L119.521 24.244ZM121.159 27.911C121.157 27.4814 122.112 22.3624 122.251 22.0646C122.399 21.7437 122.768 21.6187 123.292 21.7119C123.67 21.7793 123.726 21.8966 124.007 23.2046C124.275 24.4568 124.379 24.826 124.466 24.826C124.505 24.826 124.915 24.1777 125.377 23.3853C125.839 22.5929 126.27 21.9025 126.335 21.8509C126.401 21.7994 126.667 21.7333 126.927 21.7041C127.328 21.659 127.431 21.6802 127.603 21.8437C127.736 21.9696 127.789 22.1063 127.757 22.2377C127.73 22.3484 127.494 23.6347 127.231 25.0962C126.968 26.5576 126.713 27.8445 126.663 27.956C126.595 28.11 126.496 28.1587 126.249 28.1587C126.071 28.1587 125.907 28.108 125.883 28.0461C125.86 27.9842 126.045 26.8594 126.295 25.5465C126.544 24.2337 126.75 23.0597 126.753 22.9376C126.759 22.7433 126.742 22.7321 126.622 22.8476C126.547 22.9201 126.161 23.5267 125.765 24.1954C125.37 24.8642 124.957 25.4824 124.848 25.5691C124.618 25.7525 124.111 25.7764 123.89 25.6141C123.792 25.5427 123.627 25.0238 123.439 24.1954C123.149 22.9258 123.019 22.5852 122.924 22.8518C122.899 22.922 122.683 24.0536 122.445 25.3664C122.206 26.6792 121.99 27.8445 121.963 27.956C121.924 28.1247 121.852 28.1587 121.538 28.1587C121.189 28.1587 121.16 28.1395 121.159 27.911ZM128.136 28.07C128.104 28.0213 128.291 26.8357 128.551 25.4354C128.81 24.0351 129.053 22.6914 129.09 22.4495C129.199 21.7362 129.323 21.6733 130.626 21.6739C131.94 21.6748 132.356 21.7661 132.799 22.1529C133.624 22.8715 133.305 24.5692 132.225 25.2077C131.746 25.4911 131.42 25.5614 130.271 25.6288L129.371 25.6817L129.164 26.8273C129.05 27.4574 128.93 28.0147 128.896 28.0658C128.819 28.1842 128.213 28.1876 128.136 28.07ZM131.597 24.6853C132.057 24.43 132.284 24.0889 132.336 23.5765C132.434 22.6097 132.171 22.394 130.895 22.394C130.221 22.394 130.073 22.4201 130.003 22.5516C129.866 22.8072 129.573 24.6143 129.642 24.7833C129.696 24.9176 129.811 24.9332 130.494 24.8991C131.044 24.8717 131.378 24.807 131.597 24.6853ZM133.659 28.0404C133.616 27.9321 134.031 25.5678 134.564 22.8911C134.767 21.8702 134.793 21.8073 135.041 21.7248C135.245 21.6568 135.337 21.6701 135.458 21.7849C135.602 21.9212 135.573 22.1522 135.066 24.8878C134.764 26.5134 134.479 27.9144 134.431 28.001C134.328 28.1896 133.732 28.2199 133.659 28.0404ZM142.083 28.0648C141.999 27.935 143.092 22.0555 143.235 21.8691C143.333 21.7419 143.578 21.7141 144.806 21.6906C146.18 21.6643 146.285 21.6746 146.688 21.8747C147.229 22.1428 147.543 22.6803 147.542 23.3363C147.542 23.7222 147.063 26.6041 146.808 27.7533C146.734 28.0879 146.703 28.1156 146.375 28.1416C146.121 28.1618 146.006 28.1297 145.965 28.0262C145.933 27.9473 146.082 26.936 146.297 25.7789C146.737 23.4141 146.746 23.3027 146.541 22.893C146.336 22.4821 146.059 22.394 144.974 22.394C144.082 22.394 144.022 22.4057 143.937 22.5966C143.887 22.7081 143.633 23.9665 143.372 25.3931C143.112 26.8197 142.873 28.0255 142.842 28.0728C142.767 28.1888 142.16 28.1824 142.083 28.0648ZM153.191 28.071C153.142 27.9971 153.364 26.6869 154.125 22.5544C154.187 22.2215 154.279 21.9119 154.33 21.8664C154.505 21.7111 154.812 21.6725 154.974 21.7856C155.126 21.8917 155.124 21.9561 154.945 22.8442C154.841 23.3643 154.755 23.9216 154.755 24.0827V24.3756H156.22C157.026 24.3756 157.706 24.3448 157.73 24.307C157.755 24.2693 157.866 23.7525 157.978 23.1586C158.239 21.7744 158.233 21.7911 158.499 21.7275C158.837 21.6471 159.025 21.7524 159.026 22.0208C159.026 22.2356 158.174 27.0342 158 27.7984C157.935 28.0827 157.893 28.1164 157.574 28.1417C157.32 28.1618 157.205 28.1297 157.163 28.0267C157.131 27.9481 157.215 27.2909 157.35 26.5662C157.485 25.8415 157.573 25.2143 157.545 25.1724C157.462 25.0442 154.699 25.0782 154.586 25.2088C154.532 25.2707 154.38 25.9189 154.248 26.6491C154.116 27.3793 153.981 28.0177 153.949 28.0677C153.873 28.1842 153.266 28.1868 153.191 28.071ZM159.5 27.9072C159.5 27.7689 159.649 26.8671 159.832 25.9031C160.014 24.9391 160.256 23.6315 160.369 22.9972C160.591 21.7585 160.69 21.5984 161.17 21.7125C161.475 21.7854 161.471 21.8636 161.016 24.2855C160.806 25.4002 160.571 26.6567 160.493 27.0778C160.288 28.1846 160.303 28.1587 159.873 28.1587C159.528 28.1587 159.5 28.1399 159.5 27.9072ZM161.838 28.0236C161.808 27.9493 161.802 27.8378 161.826 27.7759C161.849 27.714 162.104 26.3662 162.394 24.781C162.799 22.5643 162.958 21.8711 163.085 21.7796C163.207 21.6906 163.572 21.6684 164.53 21.6918C165.634 21.7188 165.866 21.751 166.213 21.9247C166.799 22.2184 167.038 22.7042 166.965 23.4505C166.817 24.9537 165.825 25.6366 163.79 25.6366C163.083 25.6366 163.09 25.6264 162.869 26.8977C162.778 27.4178 162.665 27.9144 162.617 28.0011C162.506 28.2017 161.917 28.2187 161.838 28.0236ZM164.999 24.8275C166.079 24.5335 166.528 22.9508 165.653 22.5214C165.457 22.4252 165.144 22.3944 164.551 22.4131L163.723 22.439L163.498 23.539C163.374 24.1439 163.298 24.7013 163.329 24.7775C163.395 24.9413 164.463 24.9733 164.999 24.8275ZM116.747 19.0655C115.827 18.8476 115.047 18.25 114.643 17.4528C114.281 16.7369 114.234 15.6044 114.51 14.2424C114.851 12.5586 115.166 11.8313 115.879 11.0788C116.72 10.1909 118.073 9.72946 119.594 9.81132C120.669 9.86914 121.226 10.0557 121.809 10.5531C122.413 11.0684 122.772 11.8171 122.836 12.6937C122.904 13.6083 122.419 15.8796 121.969 16.761C121.345 17.9815 120.401 18.7135 119.063 19.0127C118.43 19.1544 117.238 19.1817 116.747 19.0655ZM119.188 16.9369C119.783 16.54 120.069 15.9287 120.364 14.4235C120.578 13.3316 120.596 13.102 120.502 12.7018C120.339 12.0101 119.88 11.6739 119.102 11.6773C118.247 11.681 117.556 12.1402 117.175 12.959C116.922 13.5021 116.605 15.0677 116.605 15.7735C116.605 16.8301 117.11 17.2958 118.192 17.238C118.663 17.2129 118.866 17.1514 119.188 16.9369ZM147.021 19.0907C146.376 18.9558 145.8 18.6459 145.377 18.2067C144.828 17.6363 144.601 17.0379 144.601 16.1636C144.601 15.3871 145.512 10.355 145.703 10.0733C145.835 9.87903 145.895 9.86886 146.754 9.89313C147.488 9.91388 147.684 9.9485 147.766 10.0719C147.842 10.1868 147.743 10.8959 147.37 12.9093C146.735 16.3331 146.735 16.8216 147.366 17.1315C147.775 17.332 148.662 17.2952 149.159 17.0572C149.906 16.7 150.043 16.3337 150.667 13.0252C150.965 11.448 151.264 10.0938 151.333 10.0157C151.428 9.90625 151.647 9.87382 152.291 9.87382C153.331 9.87382 153.426 9.907 153.426 10.2689C153.426 10.6535 152.512 15.5563 152.325 16.1751C151.862 17.706 150.84 18.6764 149.337 19.0126C148.773 19.1387 147.461 19.183 147.021 19.0907ZM156.756 19.0083C156.15 18.8537 155.769 18.6437 155.353 18.2341C154.433 17.3286 154.388 16.2543 155.114 12.5371C155.482 10.6538 155.626 10.0846 155.759 9.9925C155.935 9.87029 157.35 9.8222 157.642 9.92849C157.866 10.0102 157.835 10.3188 157.356 12.8012C157.117 14.0397 156.899 15.4018 156.871 15.8281C156.822 16.5844 156.827 16.6102 157.093 16.8915C157.315 17.1267 157.466 17.1927 157.914 17.2502C158.216 17.289 158.507 17.3619 158.56 17.4123C158.683 17.5288 158.492 18.6615 158.302 18.9487C158.192 19.114 158.084 19.1503 157.718 19.1454C157.472 19.1422 157.038 19.0805 156.756 19.0083ZM162.53 19.0282C161.474 18.758 160.752 18.1182 160.446 17.1828C160.157 16.2976 160.227 15.2039 160.699 13.2516C161.37 10.4783 163.499 9.38611 167.201 9.91585C168.462 10.0963 168.982 10.2313 169.077 10.4032C169.127 10.4949 168.967 11.5736 168.647 13.2966C168.366 14.8076 168.043 16.5683 167.928 17.2092C167.791 17.9785 167.666 18.4269 167.559 18.5284C167.09 18.9729 163.65 19.3148 162.53 19.0282ZM165.564 17.2148C165.616 17.1653 165.876 15.9353 166.142 14.4816C166.517 12.4334 166.601 11.81 166.515 11.7118C166.434 11.6186 166.156 11.5852 165.463 11.5852C164.391 11.5852 164.001 11.7173 163.511 12.2472C163.147 12.6403 162.974 13.1466 162.73 14.5226C162.413 16.3153 162.474 16.745 163.108 17.1514C163.413 17.3474 163.516 17.3614 164.454 17.3343C165.013 17.3181 165.512 17.2643 165.564 17.2148ZM176.167 19.004C174.203 18.4315 173.555 16.8623 174.144 14.1039C174.276 13.4865 174.474 12.7542 174.583 12.4765C175.308 10.6387 176.97 9.69196 179.266 9.80901C180.683 9.88126 181.56 10.4194 182.112 11.5555C182.299 11.9406 182.323 12.1303 182.316 13.2065C182.311 14.015 182.264 14.5433 182.174 14.7828L182.038 15.1431L179.176 15.1881C177.601 15.2129 176.282 15.2626 176.244 15.2986C176.206 15.3346 176.175 15.5787 176.175 15.8411C176.175 16.5079 176.397 16.8719 176.943 17.101C177.36 17.276 177.496 17.2832 179.302 17.2262C180.617 17.1847 181.238 17.1958 181.281 17.2614C181.39 17.4293 181.134 18.5857 180.953 18.7411C180.549 19.0881 177.105 19.2773 176.167 19.004ZM180.046 13.5671C180.164 13.3855 180.107 12.5918 179.955 12.3139C179.441 11.3687 177.659 11.5012 176.968 12.5361C176.671 12.9806 176.529 13.4117 176.628 13.5646C176.708 13.6875 179.966 13.6899 180.046 13.5671ZM105.865 18.9919C105.779 18.9749 105.684 18.902 105.654 18.8299C105.625 18.7578 105.747 17.919 105.924 16.966C106.102 16.013 106.379 14.5133 106.54 13.6335C106.882 11.7663 107.077 11.2143 107.558 10.7443C108.331 9.98892 109.007 9.85659 111.907 9.8928L113.995 9.91886L113.975 10.5819C113.942 11.7085 114.01 11.675 111.739 11.6766C110.404 11.6775 109.749 11.7119 109.587 11.7894C109.258 11.9474 109.039 12.3581 108.962 12.9588L108.896 13.4768L110.449 13.478C111.303 13.4789 112.104 13.5051 112.228 13.5366C112.443 13.5913 112.451 13.6206 112.399 14.1512C112.369 14.4577 112.293 14.8164 112.229 14.9483L112.114 15.1882H110.379C109.121 15.1882 108.625 15.2182 108.573 15.2976C108.534 15.3578 108.363 16.1544 108.194 17.0678C108.024 17.9812 107.83 18.7789 107.761 18.8405C107.643 18.9465 106.216 19.0604 105.865 18.9919ZM123.983 18.9899C123.861 18.9665 123.817 18.87 123.817 18.6255C123.817 18.0723 125.219 10.6825 125.353 10.5291C125.654 10.1848 126.967 9.88647 128.516 9.81041C129.829 9.74594 129.849 9.7604 129.688 10.6824C129.626 11.0392 129.522 11.382 129.457 11.4441C129.388 11.5097 128.949 11.5813 128.41 11.6149C127.9 11.6467 127.445 11.7086 127.399 11.7525C127.326 11.8215 127.051 13.2205 126.21 17.7851C126.107 18.3465 125.985 18.8387 125.94 18.879C125.854 18.9555 124.272 19.0451 123.983 18.9899ZM129.818 18.9197C129.675 18.8204 129.712 18.5397 130.261 15.5878C130.59 13.8149 130.921 12.2005 130.995 12.0003C131.355 11.0321 132.022 10.3733 132.99 10.0295C133.466 9.8605 133.741 9.83218 134.921 9.83062C136.24 9.82891 136.318 9.83909 136.807 10.0783L137.316 10.3278L137.945 10.0864C138.446 9.89422 138.778 9.83648 139.573 9.80363C140.798 9.75295 141.509 9.88202 142.104 10.2629C142.748 10.6748 143.002 11.1878 143.01 12.0947C143.019 12.9781 141.991 18.6771 141.787 18.8812C141.689 18.9788 141.423 19.0199 140.825 19.0293C139.918 19.0436 139.666 18.9698 139.666 18.691C139.666 18.59 139.925 17.1075 140.242 15.3966C140.879 11.9639 140.88 11.8709 140.307 11.6812C139.886 11.5419 139.036 11.5636 138.714 11.7219C138.56 11.797 138.364 11.9883 138.278 12.147C138.192 12.3057 137.853 13.8701 137.526 15.6234C137.198 17.3768 136.891 18.849 136.842 18.8949C136.737 18.9952 136.536 19.0093 135.524 18.9878C134.945 18.9754 134.738 18.9382 134.698 18.8395C134.669 18.7671 134.899 17.3431 135.21 15.6752C135.521 14.0073 135.775 12.5106 135.775 12.3491C135.775 12.1877 135.694 11.9609 135.595 11.8452C135.442 11.6655 135.314 11.6305 134.717 11.6053C133.888 11.5703 133.476 11.7559 133.252 12.2646C133.176 12.4378 132.856 13.9671 132.541 15.6628C132.217 17.4048 131.913 18.7989 131.842 18.8675C131.674 19.03 130.038 19.0721 129.818 18.9197ZM170.284 15.6158C170.112 15.4941 170.111 15.4606 170.269 14.551C170.502 13.2102 170.505 13.2066 171.59 13.2066C172.76 13.2066 172.754 13.1983 172.543 14.4195C172.452 14.9425 172.324 15.4409 172.258 15.527C172.095 15.7385 170.555 15.8078 170.284 15.6158ZM107.819 7.05062C107.792 6.98406 107.982 5.78952 108.24 4.39609C108.906 0.812074 108.95 0.754092 111.032 0.699778C112.589 0.659182 112.735 0.691852 112.696 1.07227L112.666 1.36192L111.433 1.40736C110.161 1.45418 109.86 1.53219 109.674 1.86326C109.544 2.09376 109.316 3.21637 109.369 3.36605C109.398 3.44919 109.767 3.47864 110.779 3.47864C112.271 3.47864 112.381 3.51815 112.16 3.97743C112.057 4.19133 112.035 4.19487 110.606 4.21939L109.155 4.24426L108.909 5.56209C108.773 6.28689 108.636 6.94555 108.603 7.02578C108.529 7.20814 107.891 7.22836 107.819 7.05062ZM112.948 7.05909C112.924 6.99716 113.159 5.58864 113.472 3.92904C113.905 1.62969 114.079 0.884789 114.202 0.798994C114.407 0.656003 114.533 0.656975 114.744 0.803137C114.903 0.913855 114.892 1.02931 114.518 3.03245C114.301 4.19435 114.061 5.5098 113.984 5.95566C113.791 7.07905 113.741 7.17165 113.33 7.17165C113.144 7.17165 112.973 7.12101 112.948 7.05909ZM115.317 7.05333C115.256 6.90265 116.087 2.40006 116.277 1.85054C116.441 1.37681 116.888 0.936419 117.354 0.788546C117.881 0.621757 119.534 0.657597 119.92 0.844157C120.435 1.09357 120.623 1.40752 120.618 2.01152C120.614 2.55108 119.89 6.61074 119.734 6.96901C119.667 7.12323 119.568 7.17167 119.322 7.17167C119.141 7.17167 118.976 7.11912 118.95 7.0528C118.923 6.98744 118.996 6.42779 119.112 5.80914C119.227 5.1905 119.305 4.636 119.284 4.5769C119.257 4.50085 118.875 4.46947 117.976 4.46947C116.864 4.46947 116.696 4.48898 116.619 4.6271C116.57 4.7138 116.455 5.23059 116.363 5.77554C116.135 7.1276 116.114 7.17167 115.703 7.17167C115.511 7.17167 115.344 7.12037 115.317 7.05333ZM119.431 3.6363C119.557 3.49215 119.737 2.569 119.737 2.0711C119.737 1.52982 119.521 1.40698 118.572 1.40698C117.695 1.40698 117.311 1.55874 117.13 1.97593C116.966 2.35383 116.762 3.53598 116.84 3.65523C116.932 3.79672 119.307 3.77936 119.431 3.6363Z" fill="#969696"/>
<path d="M36.1421 11.087L68.8306 11.136C64.2918 10.2155 65.6771 3.4452 67.4317 0.856409L57.6263 0.812213C47.6703 0.75869 39.7999 6.71162 36.1421 11.087Z" fill="#969696"/>
</svg>
