<svg width="106" height="60" viewBox="0 0 106 60" fill="none" xmlns="http://www.w3.org/2000/svg">
<g clip-path="url(#clip0_2_120)">
<path d="M97.1443 0.681006H8.87118C6.53106 0.673734 4.28229 1.58193 2.61202 3.20886C1.7865 4.02957 1.13394 5.00529 0.692436 6.07905C0.250932 7.15282 0.0293279 8.30313 0.0405594 9.46283V48.5624C0.0278501 49.718 0.248066 50.8643 0.688254 51.9341C1.12844 53.0039 1.77971 53.9755 2.60375 54.7918C3.42666 55.6084 4.40391 56.2557 5.47943 56.6965C6.55495 57.1374 7.70758 57.3631 8.87118 57.3607H97.1443C99.4872 57.3498 101.73 56.4178 103.382 54.7688C105.034 53.1197 105.961 50.888 105.958 48.5624V9.45462C105.967 8.3021 105.745 7.15932 105.306 6.09253C104.866 5.02575 104.218 4.05619 103.398 3.24007C102.578 2.42395 101.603 1.7775 100.53 1.33821C99.4561 0.898929 98.3054 0.675542 97.1443 0.681006Z" fill="white"/>
<path d="M102.858 9.45469C102.867 8.70635 102.726 7.96377 102.442 7.27038C102.158 6.57698 101.738 5.94669 101.206 5.41635C100.674 4.88601 100.041 4.46627 99.3436 4.18167C98.6463 3.89706 97.8988 3.75331 97.1449 3.75882H72.472L86.6275 27.2399L87.9339 27.4041L88.7607 28.4792V29.4805L89.6537 29.6611L90.4806 30.7773V31.7457L91.4066 31.9099L92.3409 32.9194V35.1518C93.4533 36.1486 94.7069 36.9782 96.0617 37.614C97.3102 38.09 97.4508 40.0762 98.2032 41.1349C99.1458 42.6779 100.436 43.2934 100.163 44.1552C99.5344 46.4614 97.1531 50.3517 94.9372 50.5323H86.1727V54.2584H97.1531C97.9088 54.2552 98.6564 54.1038 99.353 53.8131C100.05 53.5223 100.681 53.0978 101.212 52.564C101.743 52.0302 102.163 51.3976 102.446 50.7024C102.73 50.0073 102.873 49.2633 102.867 48.5133V9.45469" fill="#969696"/>
<path d="M42.499 50.5897H38.2573C38.2573 40.0679 41.8375 34.2489 46.1288 33.0917C46.7158 32.985 46.4347 30.1124 45.6906 29.2343H43.2101C42.8132 29.2343 43.0447 28.4956 43.0447 28.4956L45.0539 24.236L44.781 23.0706H37.3561L43.4581 18.8356C43.7392 7.66545 55.2819 6.79547 62.2356 11.449C66.3698 14.1656 66.684 19.5496 66.3698 23.2675C66.3202 23.5056 65.2949 23.3496 65.2949 23.3496C65.2949 23.3496 64.5921 27.4533 66.4276 27.4533H74.5389C77.8463 27.3219 81.0379 29.5461 81.0379 29.5461L81.8151 26.731L64.0464 3.75877H8.87151C7.3452 3.74991 5.87715 4.33988 4.78694 5.40023C4.25537 5.93426 3.83557 6.56746 3.55175 7.26333C3.26792 7.95919 3.1257 8.70394 3.13326 9.45464V48.5625C3.12375 49.311 3.26516 50.0538 3.54915 50.7473C3.83314 51.4407 4.25399 52.0708 4.78694 52.6005C5.87043 53.6758 7.3393 54.2809 8.87151 54.283H44.6901C43.8136 52.7892 42.8132 51.0903 42.5072 50.5897" fill="#969696"/>
<path d="M11.0876 42.2923C11.0877 41.5215 11.3184 40.7681 11.7505 40.1277C12.1826 39.4872 12.7967 38.9886 13.5148 38.6952C14.2328 38.4017 15.0225 38.3266 15.7837 38.4794C16.5448 38.6322 17.2431 39.006 17.7898 39.5533C18.3366 40.1007 18.7073 40.7969 18.8547 41.5537C19.0022 42.3105 18.9198 43.0937 18.6181 43.804C18.3164 44.5142 17.8089 45.1195 17.1601 45.543C16.5112 45.9665 15.7503 46.1891 14.9738 46.1826C14.4603 46.1837 13.9518 46.0836 13.4776 45.8881C13.0034 45.6926 12.5731 45.4056 12.2116 45.0437C11.8501 44.6818 11.5646 44.2522 11.3716 43.7799C11.1787 43.3076 11.0821 42.802 11.0876 42.2923ZM105.198 57.8698C105.198 57.4266 104.934 57.3692 104.553 57.3692H103.726V59.0106H104.074V58.3623H104.355L104.735 59.0106H105.124L104.727 58.3623C104.789 58.364 104.851 58.3523 104.909 58.3279C104.966 58.3034 105.017 58.2669 105.059 58.2209C105.101 58.1748 105.132 58.1202 105.15 58.061C105.168 58.0018 105.174 57.9394 105.165 57.878M104.529 58.0668H104.065V57.6646H104.446C104.611 57.6646 104.818 57.6646 104.818 57.8452C104.818 58.0258 104.719 58.0668 104.529 58.0668Z" fill="white"/>
<path d="M104.413 56.6141C104.099 56.6141 103.792 56.7063 103.532 56.8791C103.271 57.0519 103.067 57.2975 102.947 57.585C102.826 57.8725 102.795 58.1889 102.855 58.4943C102.916 58.7998 103.066 59.0806 103.287 59.3013C103.508 59.522 103.791 59.6727 104.098 59.7344C104.405 59.7961 104.724 59.7661 105.015 59.6481C105.305 59.5301 105.553 59.3294 105.729 59.0713C105.904 58.8133 105.999 58.5094 106 58.1981C106.004 57.9899 105.965 57.7831 105.886 57.59C105.808 57.3968 105.691 57.2213 105.543 57.0736C105.395 56.926 105.219 56.8092 105.025 56.7303C104.831 56.6514 104.623 56.6119 104.413 56.6141ZM104.413 59.4292C104.084 59.4292 103.768 59.2995 103.536 59.0686C103.303 58.8378 103.172 58.5246 103.172 58.1981C103.172 57.8716 103.303 57.5585 103.536 57.3276C103.768 57.0967 104.084 56.967 104.413 56.967C104.742 56.967 105.057 57.0967 105.29 57.3276C105.522 57.5585 105.653 57.8716 105.653 58.1981C105.653 58.5246 105.522 58.8378 105.29 59.0686C105.057 59.2995 104.742 59.4292 104.413 59.4292Z" fill="white"/>
</g>
<defs>
<clipPath id="clip0_2_120">
<rect width="105.959" height="59.0926" fill="white" transform="translate(0.0408936 0.681641)"/>
</clipPath>
</defs>
</svg>
