<svg width="123" height="72" viewBox="0 0 123 72" fill="none" xmlns="http://www.w3.org/2000/svg">
<g clip-path="url(#clip0_218_255)">
<path d="M112.72 0.000119255H10.2507C7.53421 -0.00874154 4.92377 1.09783 2.98489 3.08012C2.0266 4.0801 1.26909 5.26894 0.756585 6.57724C0.244077 7.88555 -0.0131662 9.28711 -0.000128369 10.7001V58.3401C-0.0148816 59.748 0.24075 61.1448 0.751731 62.4482C1.26271 63.7517 2.01872 64.9355 2.97529 65.9301C3.93054 66.9251 5.06495 67.7138 6.31344 68.2509C7.56193 68.788 8.89993 69.063 10.2507 69.0601H112.72C115.44 69.0469 118.044 67.9113 119.961 65.9021C121.879 63.8928 122.954 61.1737 122.952 58.3401V10.6901C122.962 9.28586 122.705 7.89346 122.194 6.59367C121.684 5.29387 120.931 4.11253 119.98 3.11815C119.028 2.12376 117.896 1.33612 116.65 0.800879C115.404 0.265642 114.068 -0.0065386 112.72 0.000119255Z" fill="white"/>
<path d="M119.353 10.6902C119.363 9.77838 119.199 8.87361 118.869 8.02876C118.54 7.18391 118.052 6.41595 117.435 5.76977C116.817 5.12359 116.082 4.61216 115.273 4.26539C114.463 3.91863 113.596 3.74348 112.72 3.75019H84.0796L100.512 32.3602L102.028 32.5602L102.988 33.8702V35.0902L104.024 35.3102L104.984 36.6702V37.8502L106.059 38.0502L107.144 39.2802V42.0002C108.435 43.2148 109.89 44.2255 111.463 45.0002C112.912 45.5802 113.076 48.0002 113.949 49.2902C115.043 51.1702 116.54 51.9202 116.224 52.9702C115.494 55.7802 112.73 60.5202 110.158 60.7402H99.9837V65.2802H112.73C113.607 65.2763 114.475 65.0919 115.284 64.7376C116.092 64.3833 116.826 63.8661 117.442 63.2157C118.058 62.5653 118.545 61.7945 118.875 60.9475C119.204 60.1005 119.37 59.1941 119.362 58.2802V10.6902" fill="#BF0D3E"/>
<path d="M49.2863 60.8101H44.3625C44.3625 47.9901 48.5185 40.9001 53.4999 39.4901C54.1814 39.3601 53.855 35.8601 52.9912 34.7901H50.1118C49.651 34.7901 49.9198 33.8901 49.9198 33.8901L52.2521 28.7001L51.9354 27.2801H43.3163L50.3997 22.1201C50.726 8.51012 64.125 7.45012 72.1971 13.1201C76.9961 16.4301 77.3608 22.9901 76.9961 27.5201C76.9385 27.8101 75.7484 27.6201 75.7484 27.6201C75.7484 27.6201 74.9325 32.6201 77.0633 32.6201H86.4791C90.3183 32.4601 94.0232 35.1701 94.0232 35.1701L94.9254 31.7401L74.299 3.75012H10.2507C8.47895 3.73933 6.77481 4.45816 5.50926 5.75012C4.8922 6.4008 4.40489 7.17231 4.07542 8.02017C3.74595 8.86803 3.58085 9.77546 3.58963 10.6901V58.3401C3.5786 59.2521 3.74274 60.1572 4.07241 61.0022C4.40207 61.8471 4.8906 62.6148 5.50926 63.2601C6.767 64.5704 8.4721 65.3076 10.2507 65.3101H51.8298C50.8124 63.4901 49.651 61.4201 49.2959 60.8101" fill="#041E42"/>
<path d="M12.823 50.6998C12.823 49.7606 13.0909 48.8426 13.5925 48.0623C14.0941 47.2819 14.8069 46.6745 15.6405 46.3169C16.474 45.9594 17.3908 45.8679 18.2743 46.054C19.1579 46.2402 19.9684 46.6956 20.6031 47.3625C21.2378 48.0294 21.6681 48.8777 21.8392 49.7998C22.0104 50.7219 21.9148 51.6762 21.5646 52.5416C21.2144 53.407 20.6253 54.1445 19.8721 54.6605C19.1189 55.1765 18.2355 55.4477 17.3341 55.4398C16.7381 55.4412 16.1478 55.3192 15.5974 55.081C15.0469 54.8427 14.5474 54.493 14.1278 54.0521C13.7081 53.6111 13.3767 53.0877 13.1527 52.5123C12.9287 51.9368 12.8167 51.3207 12.823 50.6998ZM122.069 69.6798C122.069 69.1398 121.762 69.0698 121.32 69.0698H120.36V71.0698H120.764V70.2798H121.09L121.531 71.0698H121.983L121.522 70.2798C121.594 70.2819 121.666 70.2676 121.733 70.2379C121.799 70.2081 121.859 70.1636 121.907 70.1075C121.956 70.0514 121.992 69.9849 122.013 69.9128C122.034 69.8407 122.04 69.7646 122.031 69.6898M121.291 69.9198H120.754V69.4298H121.195C121.387 69.4298 121.627 69.4298 121.627 69.6498C121.627 69.8698 121.512 69.9198 121.291 69.9198Z" fill="white"/>
<path d="M121.157 68.15C120.793 68.15 120.437 68.2624 120.134 68.4729C119.832 68.6834 119.595 68.9827 119.456 69.333C119.316 69.6832 119.279 70.0688 119.349 70.4409C119.419 70.8131 119.594 71.1552 119.851 71.4241C120.108 71.693 120.435 71.8767 120.792 71.9519C121.149 72.0271 121.519 71.9905 121.856 71.8467C122.193 71.7029 122.481 71.4584 122.685 71.144C122.889 70.8295 122.998 70.4593 123 70.08C123.004 69.8263 122.959 69.5743 122.868 69.339C122.777 69.1037 122.641 68.8898 122.47 68.7099C122.298 68.53 122.093 68.3878 121.868 68.2916C121.642 68.1955 121.401 68.1473 121.157 68.15ZM121.157 71.58C120.775 71.58 120.409 71.422 120.139 71.1407C119.869 70.8594 119.718 70.4778 119.718 70.08C119.718 69.6822 119.869 69.3007 120.139 69.0193C120.409 68.738 120.775 68.58 121.157 68.58C121.539 68.58 121.905 68.738 122.175 69.0193C122.445 69.3007 122.597 69.6822 122.597 70.08C122.597 70.4778 122.445 70.8594 122.175 71.1407C121.905 71.422 121.539 71.58 121.157 71.58Z" fill="white"/>
</g>
<defs>
<clipPath id="clip0_218_255">
<rect width="123" height="72" fill="white"/>
</clipPath>
</defs>
</svg>
